<?xml version="1.0" encoding="UTF-8"?>
<svg width="192.42mm" height="191.43mm" version="1.1" viewBox="0 0 192.42 191.43" xml:space="preserve" xmlns="http://www.w3.org/2000/svg"><ellipse cx="96.85" cy="95.159" rx="96.437" ry="96.437" display="none" fill="none" stroke="#000"/><g transform="translate(-4.8563 -6.5899)" fill="#f00"><circle cx="115.97" cy="13.576" r="6.5" stroke-dasharray="1.92108, 0.480267" stroke-width=".48027"/><circle cx="103.36" cy="21.888" r="6" stroke-dasharray="1.7733, 0.443323" stroke-width=".44332"/><circle cx="93.14" cy="31.697" r="5.5" stroke-dasharray="1.62552, 0.406379" stroke-width=".40638"/><circle cx="85.671" cy="42.893" r="5" stroke-dasharray="1.47775, 0.369435" stroke-width=".36944"/><circle cx="80.73" cy="54.875" r="4.5" stroke-dasharray="1.32997, 0.332492" stroke-width=".33249"/><circle cx="79.054" cy="66.019" r="4" stroke-dasharray="1.1822, 0.295548" stroke-width=".29555"/><circle cx="79.412" cy="76.608" r="3.5" stroke-dasharray="1.03443, 0.258604" stroke-width=".2586"/><circle cx="81.888" cy="85.022" r="3" stroke-dasharray="0.886654, 0.221661" stroke-width=".22166"/></g><g transform="translate(-4.8563 -6.5899)" fill="#f00"><circle transform="rotate(-4.6594)" cx="141.12" cy="34.787" r="6.5" stroke-dasharray="1.92108, 0.480267" stroke-width=".48027"/><circle transform="rotate(-4.6594)" cx="125.84" cy="37.836" r="6" stroke-dasharray="1.7733, 0.443323" stroke-width=".44332"/><circle transform="rotate(-4.6594)" cx="112.16" cy="43.504" r="5.5" stroke-dasharray="1.62552, 0.406379" stroke-width=".40638"/><circle transform="rotate(-4.6594)" cx="100.91" cy="50.976" r="5" stroke-dasharray="1.47775, 0.369435" stroke-width=".36944"/><circle transform="rotate(-4.6594)" cx="92.046" cy="60.738" r="4.5" stroke-dasharray="1.32997, 0.332492" stroke-width=".33249"/><circle transform="rotate(-4.6594)" cx="86.011" cy="71.185" r="4" stroke-dasharray="1.1822, 0.295548" stroke-width=".29555"/><circle transform="rotate(-4.6594)" cx="83.027" cy="81.988" r="3.5" stroke-dasharray="1.03443, 0.258604" stroke-width=".2586"/><circle transform="rotate(-4.6594)" cx="82.52" cy="91.958" r="3" stroke-dasharray="0.886654, 0.221661" stroke-width=".22166"/></g><g transform="translate(-4.8563 -6.5899)" fill="#fc0"><circle transform="rotate(8.6487)" cx="170.71" cy="15.722" r="6.5" stroke-dasharray="1.92108, 0.480267" stroke-width=".48027"/><circle transform="rotate(8.6487)" cx="155.77" cy="16.102" r="6" stroke-dasharray="1.7733, 0.443323" stroke-width=".44332"/><circle transform="rotate(8.6487)" cx="141.96" cy="19.15" r="5.5" stroke-dasharray="1.62552, 0.406379" stroke-width=".40638"/><circle transform="rotate(8.6487)" cx="129.92" cy="25.271" r="5" stroke-dasharray="1.47775, 0.369435" stroke-width=".36944"/><circle transform="rotate(8.6487)" cx="119.95" cy="32.282" r="4.5" stroke-dasharray="1.32997, 0.332492" stroke-width=".33249"/><circle transform="rotate(8.6487)" cx="112.47" cy="41.471" r="4" stroke-dasharray="1.1822, 0.295548" stroke-width=".29555"/><circle transform="rotate(8.6487)" cx="107.85" cy="51.338" r="3.5" stroke-dasharray="1.03443, 0.258604" stroke-width=".2586"/><circle transform="rotate(8.6487)" cx="107.74" cy="60.684" r="3" stroke-dasharray="0.886654, 0.221661" stroke-width=".22166"/></g><g transform="translate(-4.8563 -6.5899)" fill="#f00"><ellipse transform="matrix(.99423 .10731 -.045773 .99895 0 0)" cx="186.72" cy="46.691" rx="6.5124" ry="6.5" stroke-dasharray="1.92291, 0.480725" stroke-width=".48072"/><ellipse transform="matrix(.99423 .10731 -.045773 .99895 0 0)" cx="172.33" cy="41.458" rx="6.0115" ry="6" stroke-dasharray="1.77499, 0.443746" stroke-width=".44375"/><ellipse transform="matrix(.99423 .10731 -.045773 .99895 0 0)" cx="158.04" cy="39.647" rx="5.5105" ry="5.5" stroke-dasharray="1.62707, 0.406767" stroke-width=".40677"/><ellipse transform="matrix(.99423 .10731 -.045773 .99895 0 0)" cx="144.46" cy="40.536" rx="5.0095" ry="5" stroke-dasharray="1.47916, 0.369787" stroke-width=".36979"/><ellipse transform="matrix(.99423 .10731 -.045773 .99895 0 0)" cx="132.3" cy="43.77" rx="4.5086" ry="4.5" stroke-dasharray="1.33124, 0.332809" stroke-width=".33281"/><ellipse transform="matrix(.99423 .10731 -.045773 .99895 0 0)" cx="122.21" cy="49.089" rx="4.0076" ry="4" stroke-dasharray="1.18333, 0.29583" stroke-width=".29583"/><ellipse transform="matrix(.99423 .10731 -.045773 .99895 0 0)" cx="113.71" cy="56.733" rx="3.5067" ry="3.5" stroke-dasharray="1.03542, 0.258851" stroke-width=".25885"/><ellipse transform="matrix(.99423 .10731 -.045773 .99895 0 0)" cx="109.6" cy="65.845" rx="3.0057" ry="3" stroke-dasharray="0.8875, 0.221872" stroke-width=".22187"/></g><g transform="translate(-4.8563 -6.5899)" fill="#f00"><circle transform="rotate(-1.8445)" cx="187.65" cy="100.22" r="6.5" stroke-dasharray="1.92108, 0.480267" stroke-width=".48027"/><circle transform="rotate(-1.8445)" cx="175.57" cy="89.656" r="6" stroke-dasharray="1.7733, 0.443323" stroke-width=".44332"/><circle transform="rotate(-1.8445)" cx="162.91" cy="82.124" r="5.5" stroke-dasharray="1.62552, 0.406379" stroke-width=".40638"/><circle transform="rotate(-1.8445)" cx="149.91" cy="77.918" r="5" stroke-dasharray="1.47775, 0.369435" stroke-width=".36944"/><circle transform="rotate(-1.8445)" cx="136.82" cy="76.634" r="4.5" stroke-dasharray="1.32997, 0.332492" stroke-width=".33249"/><circle transform="rotate(-1.8445)" cx="125.02" cy="77.771" r="4" stroke-dasharray="1.1822, 0.295548" stroke-width=".29555"/><circle transform="rotate(-1.8445)" cx="113.99" cy="81.7" r="3.5" stroke-dasharray="1.03443, 0.258604" stroke-width=".2586"/><circle transform="rotate(-1.8445)" cx="105.84" cy="87.49" r="3" stroke-dasharray="0.886654, 0.221661" stroke-width=".22166"/></g><g transform="translate(-4.8563 -6.5899)" fill="#fc0"><circle transform="rotate(8.8875)" cx="205.13" cy="91.067" r="6.5" stroke-dasharray="1.92108, 0.480267" stroke-width=".48027"/><circle transform="rotate(8.8875)" cx="195.74" cy="79.247" r="6" stroke-dasharray="1.7733, 0.443323" stroke-width=".44332"/><circle transform="rotate(8.8875)" cx="184.92" cy="69.828" r="5.5" stroke-dasharray="1.62552, 0.406379" stroke-width=".40638"/><circle transform="rotate(8.8875)" cx="172.89" cy="63.657" r="5" stroke-dasharray="1.47775, 0.369435" stroke-width=".36944"/><circle transform="rotate(8.8875)" cx="160.47" cy="60.596" r="4.5" stroke-dasharray="1.32997, 0.332492" stroke-width=".33249"/><circle transform="rotate(8.8875)" cx="149.21" cy="59.446" r="4" stroke-dasharray="1.1822, 0.295548" stroke-width=".29555"/><circle transform="rotate(8.8875)" cx="138.83" cy="61.611" r="3.5" stroke-dasharray="1.03443, 0.258604" stroke-width=".2586"/><circle transform="rotate(8.8875)" cx="131.26" cy="66.836" r="3" stroke-dasharray="0.886654, 0.221661" stroke-width=".22166"/></g><g transform="translate(-4.8563 -6.5899)" fill="#f00"><circle cx="179.46" cy="146.83" r="6.5" stroke-dasharray="1.92108, 0.480267" stroke-width=".48027"/><circle cx="174.71" cy="131.89" r="6" stroke-dasharray="1.7733, 0.443323" stroke-width=".44332"/><circle cx="167.65" cy="119.3" r="5.5" stroke-dasharray="1.62552, 0.406379" stroke-width=".40638"/><circle cx="159.14" cy="108.64" r="5" stroke-dasharray="1.47775, 0.369435" stroke-width=".36944"/><circle cx="148.54" cy="100.61" r="4.5" stroke-dasharray="1.32997, 0.332492" stroke-width=".33249"/><circle cx="137.37" cy="95.636" r="4" stroke-dasharray="1.1822, 0.295548" stroke-width=".29555"/><circle cx="126.96" cy="93.737" r="3.5" stroke-dasharray="1.03443, 0.258604" stroke-width=".2586"/><circle cx="118.46" cy="95.878" r="3" stroke-dasharray="0.886654, 0.221661" stroke-width=".22166"/></g><g transform="translate(-4.8563 -6.5899)" fill="#f00"><circle transform="rotate(9.667)" cx="188.66" cy="139.41" r="6.5" stroke-dasharray="1.92108, 0.480267" stroke-width=".48027"/><circle transform="rotate(9.667)" cx="187.29" cy="124.63" r="6" stroke-dasharray="1.7733, 0.443323" stroke-width=".44332"/><circle transform="rotate(9.667)" cx="182.84" cy="111.29" r="5.5" stroke-dasharray="1.62552, 0.406379" stroke-width=".40638"/><circle transform="rotate(9.667)" cx="176.32" cy="100.08" r="5" stroke-dasharray="1.47775, 0.369435" stroke-width=".36944"/><circle transform="rotate(9.667)" cx="167.84" cy="91.144" r="4.5" stroke-dasharray="1.32997, 0.332492" stroke-width=".33249"/><circle transform="rotate(9.667)" cx="158.21" cy="84.801" r="4" stroke-dasharray="1.1822, 0.295548" stroke-width=".29555"/><circle transform="rotate(9.667)" cx="148.01" cy="81.982" r="3.5" stroke-dasharray="1.03443, 0.258604" stroke-width=".2586"/><circle transform="rotate(9.667)" cx="138.27" cy="79.335" r="3" stroke-dasharray="0.886654, 0.221661" stroke-width=".22166"/></g><g transform="translate(-4.8563 -6.5899)" fill="#fc0"><circle transform="rotate(54.64)" cx="231.11" cy="-8.9857" r="6.5" stroke-dasharray="1.92108, 0.480267" stroke-width=".48027"/><circle transform="rotate(54.64)" cx="221.66" cy="-21.104" r="6" stroke-dasharray="1.7733, 0.443323" stroke-width=".44332"/><circle transform="rotate(54.64)" cx="210.86" cy="-30.589" r="5.5" stroke-dasharray="1.62552, 0.406379" stroke-width=".40638"/><circle transform="rotate(54.64)" cx="199.18" cy="-36.984" r="5" stroke-dasharray="1.47775, 0.369435" stroke-width=".36944"/><circle transform="rotate(54.64)" cx="187.07" cy="-40.683" r="4.5" stroke-dasharray="1.32997, 0.332492" stroke-width=".33249"/><circle transform="rotate(54.64)" cx="175.13" cy="-41.337" r="4" stroke-dasharray="1.1822, 0.295548" stroke-width=".29555"/><circle transform="rotate(54.64)" cx="163.95" cy="-39.041" r="3.5" stroke-dasharray="1.03443, 0.258604" stroke-width=".2586"/><circle transform="rotate(54.64)" cx="153.92" cy="-33.995" r="3" stroke-dasharray="0.886654, 0.221661" stroke-width=".22166"/></g><g transform="translate(-4.8563 -6.5899)" fill="#f00"><circle transform="rotate(40.027)" cx="213.11" cy="69.438" r="6.5" stroke-dasharray="1.92108, 0.480267" stroke-width=".48027"/><circle transform="rotate(40.027)" cx="210.41" cy="54.1" r="6" stroke-dasharray="1.7733, 0.443323" stroke-width=".44332"/><circle transform="rotate(40.027)" cx="204.88" cy="40.219" r="5.5" stroke-dasharray="1.62552, 0.406379" stroke-width=".40638"/><circle transform="rotate(40.027)" cx="197.43" cy="28.752" r="5" stroke-dasharray="1.47775, 0.369435" stroke-width=".36944"/><circle transform="rotate(40.027)" cx="188.25" cy="19.813" r="4.5" stroke-dasharray="1.32997, 0.332492" stroke-width=".33249"/><circle transform="rotate(40.027)" cx="178.07" cy="13.274" r="4" stroke-dasharray="1.1822, 0.295548" stroke-width=".29555"/><circle transform="rotate(40.027)" cx="166.99" cy="9.5726" r="3.5" stroke-dasharray="1.03443, 0.258604" stroke-width=".2586"/><circle transform="rotate(40.027)" cx="158.05" cy="11.127" r="3" stroke-dasharray="0.886654, 0.221661" stroke-width=".22166"/></g><g transform="translate(-4.8563 -6.5899)" fill="#f00"><circle transform="rotate(50.71)" cx="205.6" cy="51.152" r="6.5" stroke-dasharray="1.92108, 0.480267" stroke-width=".48027"/><circle transform="rotate(50.71)" cx="205.74" cy="36.046" r="6" stroke-dasharray="1.7733, 0.443323" stroke-width=".44332"/><circle transform="rotate(50.71)" cx="203.19" cy="22.509" r="5.5" stroke-dasharray="1.62552, 0.406379" stroke-width=".40638"/><circle transform="rotate(50.71)" cx="197.71" cy="9.9971" r="5" stroke-dasharray="1.47775, 0.369435" stroke-width=".36944"/><circle transform="rotate(50.71)" cx="190.42" cy=".46617" r="4.5" stroke-dasharray="1.32997, 0.332492" stroke-width=".33249"/><circle transform="rotate(50.71)" cx="181.87" cy="-7.5658" r="4" stroke-dasharray="1.1822, 0.295548" stroke-width=".29555"/><circle transform="rotate(50.71)" cx="173.02" cy="-11.89" r="3.5" stroke-dasharray="1.03443, 0.258604" stroke-width=".2586"/><circle transform="rotate(50.71)" cx="163.63" cy="-11.612" r="3" stroke-dasharray="0.886654, 0.221661" stroke-width=".22166"/></g><g transform="translate(-4.8563 -6.5899)" fill="#fc0"><circle transform="rotate(46.132)" cx="176.18" cy="82.089" r="6.5" stroke-dasharray="1.92108, 0.480267" stroke-width=".48027"/><circle transform="rotate(46.132)" cx="181.66" cy="67.659" r="6" stroke-dasharray="1.7733, 0.443323" stroke-width=".44332"/><circle transform="rotate(46.132)" cx="184.34" cy="53.269" r="5.5" stroke-dasharray="1.62552, 0.406379" stroke-width=".40638"/><circle transform="rotate(46.132)" cx="184.44" cy="39.525" r="5" stroke-dasharray="1.47775, 0.369435" stroke-width=".36944"/><circle transform="rotate(46.132)" cx="181.22" cy="27.294" r="4.5" stroke-dasharray="1.32997, 0.332492" stroke-width=".33249"/><circle transform="rotate(46.132)" cx="175.59" cy="16.382" r="4" stroke-dasharray="1.1822, 0.295548" stroke-width=".29555"/><circle transform="rotate(46.132)" cx="168.32" cy="8.0252" r="3.5" stroke-dasharray="1.03443, 0.258604" stroke-width=".2586"/><circle transform="rotate(46.132)" cx="159.8" cy="5.4145" r="3" stroke-dasharray="0.886654, 0.221661" stroke-width=".22166"/></g><g transform="translate(-4.8563 -6.5899)" fill="#f00"><circle transform="rotate(36.751)" cx="138.48" cy="110.97" r="6.5" stroke-dasharray="1.92108, 0.480267" stroke-width=".48027"/><circle transform="rotate(36.751)" cx="148.92" cy="99.034" r="6" stroke-dasharray="1.7733, 0.443323" stroke-width=".44332"/><circle transform="rotate(36.751)" cx="156.78" cy="86.273" r="5.5" stroke-dasharray="1.62552, 0.406379" stroke-width=".40638"/><circle transform="rotate(36.751)" cx="161.72" cy="73.504" r="5" stroke-dasharray="1.47775, 0.369435" stroke-width=".36944"/><circle transform="rotate(36.751)" cx="163.3" cy="60.583" r="4.5" stroke-dasharray="1.32997, 0.332492" stroke-width=".33249"/><circle transform="rotate(36.751)" cx="162.53" cy="48.611" r="4" stroke-dasharray="1.1822, 0.295548" stroke-width=".29555"/><circle transform="rotate(36.751)" cx="159.41" cy="37.759" r="3.5" stroke-dasharray="1.03443, 0.258604" stroke-width=".2586"/><circle transform="rotate(36.751)" cx="153.49" cy="29.654" r="3" stroke-dasharray="0.886654, 0.221661" stroke-width=".22166"/></g><g transform="translate(-4.8563 -6.5899)" fill="#f00"><circle transform="rotate(46.132)" cx="128.28" cy="86.373" r="6.5" stroke-dasharray="1.92108, 0.480267" stroke-width=".48027"/><circle transform="rotate(46.132)" cx="140.48" cy="77.072" r="6" stroke-dasharray="1.7733, 0.443323" stroke-width=".44332"/><circle transform="rotate(46.132)" cx="149.87" cy="66.454" r="5.5" stroke-dasharray="1.62552, 0.406379" stroke-width=".40638"/><circle transform="rotate(46.132)" cx="156.51" cy="54.749" r="5" stroke-dasharray="1.47775, 0.369435" stroke-width=".36944"/><circle transform="rotate(46.132)" cx="160.23" cy="42.985" r="4.5" stroke-dasharray="1.32997, 0.332492" stroke-width=".33249"/><circle transform="rotate(46.132)" cx="160.83" cy="31.151" r="4" stroke-dasharray="1.1822, 0.295548" stroke-width=".29555"/><circle transform="rotate(46.132)" cx="159.35" cy="20.393" r="3.5" stroke-dasharray="1.03443, 0.258604" stroke-width=".2586"/><circle transform="rotate(46.132)" cx="155.05" cy="11.926" r="3" stroke-dasharray="0.886654, 0.221661" stroke-width=".22166"/></g><g transform="translate(-4.8563 -6.5899)" fill="#fc0"><circle transform="rotate(35.915)" cx="90.109" cy="97.529" r="6.5" stroke-dasharray="1.92108, 0.480267" stroke-width=".48027"/><circle transform="rotate(35.915)" cx="105.15" cy="93.166" r="6" stroke-dasharray="1.7733, 0.443323" stroke-width=".44332"/><circle transform="rotate(35.915)" cx="118.26" cy="86.658" r="5.5" stroke-dasharray="1.62552, 0.406379" stroke-width=".40638"/><circle transform="rotate(35.915)" cx="129.03" cy="78.204" r="5" stroke-dasharray="1.47775, 0.369435" stroke-width=".36944"/><circle transform="rotate(35.915)" cx="137.21" cy="68.118" r="4.5" stroke-dasharray="1.32997, 0.332492" stroke-width=".33249"/><circle transform="rotate(35.915)" cx="143.36" cy="56.81" r="4" stroke-dasharray="1.1822, 0.295548" stroke-width=".29555"/><circle transform="rotate(35.915)" cx="145.07" cy="46.705" r="3.5" stroke-dasharray="1.03443, 0.258604" stroke-width=".2586"/><circle transform="rotate(35.915)" cx="144.17" cy="36.939" r="3" stroke-dasharray="0.886654, 0.221661" stroke-width=".22166"/></g><g transform="translate(-4.8563 -6.5899)" fill="#f00"><circle transform="rotate(46.132)" cx="83.795" cy="64.796" r="6.5" stroke-dasharray="1.92108, 0.480267" stroke-width=".48027"/><circle transform="rotate(46.132)" cx="98.828" cy="63.406" r="6" stroke-dasharray="1.7733, 0.443323" stroke-width=".44332"/><circle transform="rotate(46.132)" cx="112.2" cy="59.333" r="5.5" stroke-dasharray="1.62552, 0.406379" stroke-width=".40638"/><circle transform="rotate(46.132)" cx="123.65" cy="52.984" r="5" stroke-dasharray="1.47775, 0.369435" stroke-width=".36944"/><circle transform="rotate(46.132)" cx="132.88" cy="44.72" r="4.5" stroke-dasharray="1.32997, 0.332492" stroke-width=".33249"/><circle transform="rotate(46.132)" cx="139.56" cy="35.625" r="4" stroke-dasharray="1.1822, 0.295548" stroke-width=".29555"/><circle transform="rotate(46.132)" cx="143.57" cy="24.839" r="3.5" stroke-dasharray="1.03443, 0.258604" stroke-width=".2586"/><circle transform="rotate(46.132)" cx="144.25" cy="14.889" r="3" stroke-dasharray="0.886654, 0.221661" stroke-width=".22166"/></g><g transform="translate(-4.8563 -6.5899)" fill="#f00"><circle transform="rotate(38.896)" cx="61.625" cy="53.904" r="6.5" stroke-dasharray="1.92108, 0.480267" stroke-width=".48027"/><circle transform="rotate(38.896)" cx="76.425" cy="57.965" r="6" stroke-dasharray="1.7733, 0.443323" stroke-width=".44332"/><circle transform="rotate(38.896)" cx="90.898" cy="59.152" r="5.5" stroke-dasharray="1.62552, 0.406379" stroke-width=".40638"/><circle transform="rotate(38.896)" cx="104.1" cy="57.501" r="5" stroke-dasharray="1.47775, 0.369435" stroke-width=".36944"/><circle transform="rotate(38.896)" cx="116.2" cy="53.462" r="4.5" stroke-dasharray="1.32997, 0.332492" stroke-width=".33249"/><circle transform="rotate(38.896)" cx="126.19" cy="46.985" r="4" stroke-dasharray="1.1822, 0.295548" stroke-width=".29555"/><circle transform="rotate(38.896)" cx="133.75" cy="38.773" r="3.5" stroke-dasharray="1.03443, 0.258604" stroke-width=".2586"/><circle transform="rotate(38.896)" cx="138.06" cy="29.714" r="3" stroke-dasharray="0.886654, 0.221661" stroke-width=".22166"/></g><g transform="translate(-4.8563 -6.5899)" fill="#fc0"><circle transform="rotate(34.394)" cx="51.248" cy="33.458" r="6.5" stroke-dasharray="1.92108, 0.480267" stroke-width=".48027"/><circle transform="rotate(34.394)" cx="63.72" cy="43.026" r="6" stroke-dasharray="1.7733, 0.443323" stroke-width=".44332"/><circle transform="rotate(34.394)" cx="76.962" cy="49.405" r="5.5" stroke-dasharray="1.62552, 0.406379" stroke-width=".40638"/><circle transform="rotate(34.394)" cx="90.385" cy="52.942" r="5" stroke-dasharray="1.47775, 0.369435" stroke-width=".36944"/><circle transform="rotate(34.394)" cx="103.32" cy="53.532" r="4.5" stroke-dasharray="1.32997, 0.332492" stroke-width=".33249"/><circle transform="rotate(34.394)" cx="115.23" cy="51.374" r="4" stroke-dasharray="1.1822, 0.295548" stroke-width=".29555"/><circle transform="rotate(34.394)" cx="125.79" cy="46.623" r="3.5" stroke-dasharray="1.03443, 0.258604" stroke-width=".2586"/><circle transform="rotate(34.394)" cx="134.3" cy="40.233" r="3" stroke-dasharray="0.886654, 0.221661" stroke-width=".22166"/></g><g transform="translate(-4.8563 -6.5899)" fill="#f00"><circle transform="rotate(44.892)" cx="53.993" cy="-2.4031" r="6.5" stroke-dasharray="1.92108, 0.480267" stroke-width=".48027"/><circle transform="rotate(44.892)" cx="64.102" cy="8.9796" r="6" stroke-dasharray="1.7733, 0.443323" stroke-width=".44332"/><circle transform="rotate(44.892)" cx="75.439" cy="17.097" r="5.5" stroke-dasharray="1.62552, 0.406379" stroke-width=".40638"/><circle transform="rotate(44.892)" cx="87.632" cy="22.693" r="5" stroke-dasharray="1.47775, 0.369435" stroke-width=".36944"/><circle transform="rotate(44.892)" cx="99.909" cy="25.127" r="4.5" stroke-dasharray="1.32997, 0.332492" stroke-width=".33249"/><circle transform="rotate(44.892)" cx="111.5" cy="25.202" r="4" stroke-dasharray="1.1822, 0.295548" stroke-width=".29555"/><circle transform="rotate(44.892)" cx="121.94" cy="22.144" r="3.5" stroke-dasharray="1.03443, 0.258604" stroke-width=".2586"/><circle transform="rotate(44.892)" cx="130.07" cy="17.356" r="3" stroke-dasharray="0.886654, 0.221661" stroke-width=".22166"/></g><g transform="translate(-4.8563 -6.5899)" fill="#f00"><circle transform="rotate(43.642)" cx="60.724" cy="-29.428" r="6.5" stroke-dasharray="1.92108, 0.480267" stroke-width=".48027"/><circle transform="rotate(43.642)" cx="66.118" cy="-14.6" r="6" stroke-dasharray="1.7733, 0.443323" stroke-width=".44332"/><circle transform="rotate(43.642)" cx="74.015" cy="-2.6091" r="5.5" stroke-dasharray="1.62552, 0.406379" stroke-width=".40638"/><circle transform="rotate(43.642)" cx="83.468" cy="7.3072" r="5" stroke-dasharray="1.47775, 0.369435" stroke-width=".36944"/><circle transform="rotate(43.642)" cx="93.912" cy="14.23" r="4.5" stroke-dasharray="1.32997, 0.332492" stroke-width=".33249"/><circle transform="rotate(43.642)" cx="105.09" cy="18.662" r="4" stroke-dasharray="1.1822, 0.295548" stroke-width=".29555"/><circle transform="rotate(43.642)" cx="116.07" cy="19.953" r="3.5" stroke-dasharray="1.03443, 0.258604" stroke-width=".2586"/><circle transform="rotate(43.642)" cx="126.23" cy="18.749" r="3" stroke-dasharray="0.886654, 0.221661" stroke-width=".22166"/></g><g transform="translate(-4.8563 -6.5899)" fill="#fc0"><circle transform="rotate(40.913)" cx="78.193" cy="-50.442" r="6.5" stroke-dasharray="1.92108, 0.480267" stroke-width=".48027"/><circle transform="rotate(40.913)" cx="78.068" cy="-34.431" r="6" stroke-dasharray="1.7733, 0.443323" stroke-width=".44332"/><circle transform="rotate(40.913)" cx="80.922" cy="-19.89" r="5.5" stroke-dasharray="1.62552, 0.406379" stroke-width=".40638"/><circle transform="rotate(40.913)" cx="86.05" cy="-6.918" r="5" stroke-dasharray="1.47775, 0.369435" stroke-width=".36944"/><circle transform="rotate(40.913)" cx="93.446" cy="3.8024" r="4.5" stroke-dasharray="1.32997, 0.332492" stroke-width=".33249"/><circle transform="rotate(40.913)" cx="102.42" cy="12.102" r="4" stroke-dasharray="1.1822, 0.295548" stroke-width=".29555"/><circle transform="rotate(40.913)" cx="112.51" cy="18.022" r="3.5" stroke-dasharray="1.03443, 0.258604" stroke-width=".2586"/><circle transform="rotate(40.913)" cx="122.92" cy="20.904" r="3" stroke-dasharray="0.886654, 0.221661" stroke-width=".22166"/></g><g transform="translate(-4.8563 -6.5899)"><ellipse cx="100.03" cy="105.79" rx="25.291" ry="25.818" fill="#f00" stroke-dasharray="7.55229, 1.88807" stroke-width="1.8881"/></g></svg>
